<?xml version="1.0" standalone="no"?>
<!DOCTYPE svg PUBLIC "-//W3C//DTD SVG 20010904//EN"
 "http://www.w3.org/TR/2001/REC-SVG-20010904/DTD/svg10.dtd">
<svg version="1.0" xmlns="http://www.w3.org/2000/svg"
 width="256.000000pt" height="256.000000pt" viewBox="0 0 256.000000 256.000000"
 preserveAspectRatio="xMidYMid meet">

<g transform="translate(0.000000,256.000000) scale(0.100000,-0.100000)"
fill="#000000" stroke="none">
<path d="M864 2546 c-18 -8 -35 -26 -42 -42 -6 -16 -26 -116 -44 -222 -29
-171 -35 -193 -53 -197 -11 -3 -126 -23 -255 -46 -129 -22 -256 -50 -283 -61
-61 -26 -140 -112 -161 -174 -9 -26 -16 -74 -16 -105 0 -32 45 -312 99 -621
55 -310 111 -630 126 -711 16 -95 34 -166 49 -195 46 -90 138 -154 238 -168
50 -7 1464 239 1510 262 15 8 29 22 32 32 3 10 23 24 44 31 87 32 155 100 186
187 8 23 71 365 141 760 131 741 134 769 103 842 -43 98 -119 163 -220 188
-35 8 -360 67 -723 130 -363 63 -669 116 -680 119 -11 2 -34 -2 -51 -9z m554
-746 c250 -43 462 -82 473 -85 37 -12 37 -35 -1 -253 -48 -269 -46 -261 -74
-268 -20 -5 -911 147 -951 162 -8 3 -17 14 -20 24 -3 9 13 120 35 246 39 217
50 254 79 254 4 0 210 -36 459 -80z m-463 -859 c893 -158 1083 -192 1108 -202
38 -16 69 -62 74 -112 6 -53 -26 -104 -80 -130 l-38 -19 -662 117 c-843 149
-770 133 -763 159 2 12 13 69 22 129 17 96 21 107 39 107 12 0 147 -22 300
-49z m295 -501 c306 -54 417 -77 385 -79 -5 -1 -250 -43 -543 -95 -421 -74
-541 -92 -567 -85 -82 23 -120 96 -90 175 9 23 28 50 43 60 27 18 324 80 392
83 18 0 189 -26 380 -59z"/>
</g>
</svg>
